<?xml version="1.0" standalone="no"?>
<!DOCTYPE svg PUBLIC "-//W3C//DTD SVG 20010904//EN"
 "http://www.w3.org/TR/2001/REC-SVG-20010904/DTD/svg10.dtd">
<svg version="1.0" xmlns="http://www.w3.org/2000/svg"
 width="260.000000pt" height="260.000000pt" viewBox="0 0 260.000000 260.000000"
 preserveAspectRatio="xMidYMid meet">
<metadata>
Created by potrace 1.11, written by Peter Selinger 2001-2013
</metadata>
<g transform="translate(0.000000,260.000000) scale(0.100000,-0.100000)"
fill="#000000" stroke="none">
<path d="M1165 2489 c-166 -17 -324 -70 -470 -157 -33 -20 -66 -42 -73 -49 -8
-7 -23 -18 -34 -24 -82 -44 -318 -308 -318 -356 0 -7 -4 -13 -8 -13 -11 0 -81
-151 -99 -214 -8 -28 -24 -85 -36 -126 -18 -64 -21 -101 -21 -260 0 -179 1
-189 33 -300 31 -112 144 -360 162 -360 5 0 9 -4 9 -10 0 -30 182 -228 255
-278 22 -15 42 -30 45 -33 3 -3 19 -14 37 -24 18 -10 30 -22 28 -25 -2 -4 1
-7 8 -7 21 -1 196 -91 189 -97 -3 -4 1 -4 9 -1 9 3 29 0 45 -6 36 -15 39 -16
65 -18 11 0 18 -4 16 -8 -3 -5 16 -9 41 -10 25 -1 53 -5 61 -9 34 -13 179 -17
301 -8 41 3 91 6 110 7 19 1 37 5 40 8 3 3 35 13 71 22 36 9 90 28 119 41 30
14 57 23 62 20 4 -3 8 -1 8 5 0 5 10 13 23 18 38 14 137 75 137 84 0 5 5 9 11
9 6 0 22 9 36 20 14 11 30 17 36 13 5 -3 7 -1 4 4 -4 6 2 18 13 28 11 10 20
15 20 12 0 -4 26 21 57 56 32 34 61 61 65 59 5 -1 7 1 6 5 -3 9 92 146 104
151 5 2 8 10 8 18 0 8 5 14 10 14 6 0 9 3 8 8 -5 15 25 71 35 65 5 -3 7 -2 4
4 -9 14 48 145 58 135 4 -4 5 -2 2 4 -9 15 3 75 13 69 4 -2 5 7 2 22 -3 18 -1
24 6 19 8 -5 10 -2 6 8 -3 9 -1 37 5 63 6 27 12 71 13 98 2 28 8 53 13 57 7 5
7 8 0 8 -6 0 -10 34 -10 83 0 222 -102 510 -245 691 -43 55 -172 183 -220 220
-64 48 -204 136 -217 136 -4 0 -24 8 -43 19 -135 71 -408 111 -615 90z"/>
</g>
</svg>
